<svg width="128" height="128" viewBox="0 0 128 128" fill="none" xmlns="http://www.w3.org/2000/svg">
<path fill-rule="evenodd" clip-rule="evenodd" d="M128 0H0V128H128V0ZM1.6 89.6H126.4V126.4H1.6V89.6Z" fill="black"/>
<path d="M126.4 89.6H1.6V126.4H126.4V89.6Z" fill="white"/>
<path d="M11.1968 113.61H14.3927V106.164H14.5615L17.0876 113.61H19.0484L21.5745 106.164H21.7433V113.61H24.9393V101.145H20.7759L18.1587 108.997H17.9946L15.3601 101.145H11.1968V113.61Z" fill="black"/>
<path d="M39.332 113.61H42.9944V109.429H44.0309C44.0597 109.429 44.0885 109.429 44.1172 109.429C44.146 109.429 44.172 109.429 44.195 109.429L46.1644 113.61H50.2586L47.8919 108.885C48.5368 108.574 49.0321 108.099 49.3776 107.46C49.7231 106.815 49.8958 106.127 49.8958 105.395V105.378C49.8958 104.485 49.7087 103.725 49.3344 103.098C48.9658 102.464 48.4159 101.98 47.6846 101.646C46.9533 101.312 46.0406 101.145 44.9465 101.145H39.332V113.61ZM42.9944 107.01V103.849H44.5232C45.0242 103.849 45.4215 103.996 45.7152 104.29C46.0147 104.583 46.1644 104.96 46.1644 105.421V105.438C46.1644 105.911 46.0147 106.291 45.7152 106.579C45.4215 106.866 45.0242 107.01 44.5232 107.01H42.9944Z" fill="black"/>
<path d="M63.3039 113.61H68.832C70.0873 113.61 71.1469 113.365 72.0106 112.875C72.8744 112.386 73.528 111.666 73.9714 110.716C74.4205 109.766 74.6451 108.603 74.6451 107.226V107.209C74.6451 105.913 74.4176 104.814 73.9627 103.91C73.5136 103.005 72.8571 102.32 71.9933 101.854C71.1296 101.382 70.0758 101.145 68.832 101.145H63.3039V113.61ZM66.9662 110.707V104.048H68.115C68.7024 104.048 69.2034 104.172 69.618 104.419C70.0384 104.667 70.3579 105.032 70.5768 105.516C70.8013 105.994 70.9136 106.581 70.9136 107.278V107.295C70.9136 108.056 70.8071 108.689 70.594 109.196C70.381 109.703 70.0671 110.083 69.6525 110.336C69.2379 110.584 68.7254 110.707 68.115 110.707H66.9662Z" fill="black"/>
<path d="M81.3189 113.955C82.5915 113.955 83.6971 113.69 84.6357 113.16C85.5744 112.631 86.2999 111.876 86.8124 110.897C87.3307 109.913 87.5898 108.741 87.5898 107.382V107.365C87.5898 106.011 87.3307 104.845 86.8124 103.866C86.2999 102.882 85.5744 102.124 84.6357 101.595C83.6971 101.065 82.5915 100.8 81.3189 100.8C80.052 100.8 78.9464 101.065 78.002 101.595C77.0634 102.124 76.335 102.882 75.8167 103.866C75.2984 104.845 75.0393 106.011 75.0393 107.365V107.382C75.0393 108.741 75.2956 109.913 75.8081 110.897C76.3263 111.876 77.0548 112.631 77.9934 113.16C78.9378 113.69 80.0463 113.955 81.3189 113.955ZM81.3189 110.966C80.8179 110.966 80.3745 110.82 79.9887 110.526C79.6086 110.232 79.3092 109.818 79.0904 109.282C78.8773 108.741 78.7708 108.107 78.7708 107.382V107.365C78.7708 106.639 78.8773 106.008 79.0904 105.473C79.3092 104.937 79.6086 104.523 79.9887 104.229C80.3745 103.935 80.8179 103.789 81.3189 103.789C81.8199 103.789 82.2604 103.935 82.6404 104.229C83.0263 104.523 83.3257 104.937 83.5388 105.473C83.7518 106.008 83.8584 106.639 83.8584 107.365V107.382C83.8584 108.107 83.7518 108.741 83.5388 109.282C83.3257 109.818 83.0263 110.232 82.6404 110.526C82.2604 110.82 81.8199 110.966 81.3189 110.966Z" fill="black"/>
<path d="M90.774 113.61H94.229L96.0257 106.656H96.1984L98.0382 113.61H101.467L104.681 101.145H100.915L99.5412 108.833H99.3684L97.5286 101.145H94.6955L92.942 108.833H92.7693L91.3613 101.145H87.5608L90.774 113.61Z" fill="black"/>
<path d="M105.61 113.61H109.065V107.33H109.237L113.972 113.61H116.787V101.145H113.332V107.33H113.158L108.452 101.145H105.61V113.61Z" fill="black"/>
<path d="M62.5296 101.145H58.6858L54.9371 106.285H54.7644V101.145H51.102V113.61H54.7644V110.343L55.7432 109.029L58.4699 113.61H62.7196L58.4264 106.68L62.5296 101.145Z" fill="black"/>
<path fill-rule="evenodd" clip-rule="evenodd" d="M25.7826 113.61H29.635L30.2689 111.131H34.0283L34.6621 113.61H38.5145L34.4462 101.145H29.851L25.7826 113.61ZM32.0622 104.117L30.9292 108.548H33.3679L32.235 104.117H32.0622Z" fill="black"/>
<path d="M110.933 8.20001H93.8666V64.8H84.3866L102.4 81.6L120.413 64.8H110.933V8.20001Z" fill="white"/>
<path d="M76.2981 64H59.4396V31.6141L44.2348 50.3681H42.9038L27.6586 31.6141V64H11.2842V8.10098H26.5697L43.7508 29.0732L61.0125 8.10098H76.2981V64Z" fill="white"/>
<path d="M11.1917 81.7692H14.0568V75.0942H14.2082L16.4728 81.7692H18.2306L20.4953 75.0942H20.6467V81.7692H23.5118V70.5951H19.7794L17.433 77.6341H17.2859L14.9241 70.5951H11.1917V81.7692Z" fill="white"/>
<path d="M35.5585 81.7692H38.8418V78.0213H39.7711C39.7969 78.0213 39.8227 78.0213 39.8485 78.0213C39.8743 78.0213 39.8976 78.0213 39.9182 78.0213L41.6838 81.7692H45.3543L43.2325 77.5334C43.8107 77.2547 44.2547 76.8288 44.5644 76.2557C44.8741 75.6775 45.029 75.0606 45.029 74.405V74.3895C45.029 73.5893 44.8612 72.9079 44.5257 72.3452C44.1953 71.7773 43.7023 71.3437 43.0466 71.0443C42.391 70.7448 41.5728 70.5951 40.5919 70.5951H35.5585V81.7692ZM38.8418 75.8531V73.0189H40.2125C40.6616 73.0189 41.0178 73.1505 41.2811 73.4138C41.5495 73.6771 41.6838 74.0152 41.6838 74.4282V74.4437C41.6838 74.867 41.5495 75.2078 41.2811 75.4659C41.0178 75.724 40.6616 75.8531 40.2125 75.8531H38.8418Z" fill="white"/>
<path d="M61.1102 82.079C62.1065 82.079 62.9738 81.906 63.7121 81.5601C64.4503 81.2143 65.0233 80.729 65.4311 80.1043C65.839 79.4797 66.0429 78.7466 66.0429 77.9051V70.5951H62.7596V77.5799C62.7596 78.1633 62.6202 78.6124 62.3414 78.9273C62.0627 79.2422 61.6548 79.3997 61.1179 79.3997C60.5862 79.3997 60.1784 79.2422 59.8944 78.9273C59.6157 78.6124 59.4763 78.1633 59.4763 77.5799V70.5951H56.193V77.9051C56.193 78.7518 56.3969 79.4874 56.8047 80.1121C57.2177 80.7367 57.7933 81.222 58.5315 81.5679C59.2698 81.9086 60.1293 82.079 61.1102 82.079Z" fill="white"/>
<path d="M55.927 70.5951H52.4811L49.1203 75.2026H48.9655V70.5951H45.6822V81.7692H48.9655V78.8409L49.843 77.663L52.2875 81.7692H56.0974L52.2485 75.557L55.927 70.5951Z" fill="white"/>
<path fill-rule="evenodd" clip-rule="evenodd" d="M72.0226 78.7182C72.895 78.7182 73.6487 78.5556 74.2837 78.2304C74.9238 77.9 75.4169 77.4328 75.7627 76.8288C76.1138 76.2248 76.2893 75.5098 76.2893 74.6838V74.6683C76.2893 73.8423 76.1138 73.1247 75.7627 72.5156C75.4169 71.9064 74.9238 71.434 74.2837 71.0985C73.6487 70.7629 72.895 70.5951 72.0226 70.5951H70.3112H68.6695H67.0279V81.7692H70.3112V78.7182H72.0226ZM72.5104 73.468C72.2058 73.1996 71.7825 73.0654 71.2404 73.0654H70.3112V76.2945H71.2404C71.7825 76.2945 72.2058 76.1602 72.5104 75.8918C72.8201 75.6182 72.975 75.2155 72.975 74.6838V74.6683C72.975 74.1314 72.8201 73.7313 72.5104 73.468Z" fill="white"/>
<path fill-rule="evenodd" clip-rule="evenodd" d="M23.8397 81.7692H27.2934L27.8616 79.5468H31.2319L31.8002 81.7692H35.2539L31.6066 70.5951H27.487L23.8397 81.7692ZM29.4693 73.2589H29.6242L30.6399 77.2314H28.4536L29.4693 73.2589Z" fill="white"/>
</svg>
